<svg width="46" height="47" viewBox="0 0 46 47" fill="none" xmlns="http://www.w3.org/2000/svg">
<g filter="url(#filter0_d_1_458)">
<circle cx="23" cy="23.473" r="15" fill="white"/>
<path fill-rule="evenodd" clip-rule="evenodd" d="M22.9953 19.4114C21.618 17.8063 19.3213 17.3745 17.5956 18.8443C15.87 20.3141 15.627 22.7715 16.9822 24.5098C18.1089 25.9551 21.5188 29.0033 22.6364 29.9899C22.7614 30.1003 22.8239 30.1554 22.8969 30.1771C22.9605 30.1961 23.0302 30.1961 23.0938 30.1771C23.1667 30.1554 23.2292 30.1003 23.3543 29.9899C24.4719 29.0033 27.8817 25.9551 29.0085 24.5098C30.3636 22.7715 30.1504 20.2986 28.395 18.8443C26.6397 17.39 24.3726 17.8063 22.9953 19.4114Z" stroke="#171E1D" stroke-width="1.5" stroke-linecap="round" stroke-linejoin="round"/>
</g>
<defs>
<filter id="filter0_d_1_458" x="0" y="0.473022" width="46" height="46" filterUnits="userSpaceOnUse" color-interpolation-filters="sRGB">
<feFlood flood-opacity="0" result="BackgroundImageFix"/>
<feColorMatrix in="SourceAlpha" type="matrix" values="0 0 0 0 0 0 0 0 0 0 0 0 0 0 0 0 0 0 127 0" result="hardAlpha"/>
<feOffset/>
<feGaussianBlur stdDeviation="4"/>
<feComposite in2="hardAlpha" operator="out"/>
<feColorMatrix type="matrix" values="0 0 0 0 0 0 0 0 0 0 0 0 0 0 0 0 0 0 0.08 0"/>
<feBlend mode="normal" in2="BackgroundImageFix" result="effect1_dropShadow_1_458"/>
<feBlend mode="normal" in="SourceGraphic" in2="effect1_dropShadow_1_458" result="shape"/>
</filter>
</defs>
</svg>
